<svg width="30" height="30" viewBox="0 0 30 30" fill="none" xmlns="http://www.w3.org/2000/svg">
<path d="M27.0443 0H2.95567C1.32296 0 0 1.32296 0 2.95567V27.0443C0 28.677 1.32296 30 2.95567 30H27.0443C28.677 30 30 28.677 30 27.0443V2.95567C30 1.32296 28.677 0 27.0443 0Z" fill="#3F7EDC"/>
<path d="M16.7037 25.7133V15.9389H20.0732L20.578 12.1293H16.7037V9.69732C16.7037 8.59402 17.0179 7.84331 18.6427 7.84331L20.7147 7.84214V4.43533C20.3562 4.38863 19.1271 4.28589 17.6954 4.28589C14.7084 4.28589 12.664 6.06051 12.664 9.32138V12.1304H9.28613V15.94H12.664V25.7145H16.7037V25.7133Z" fill="white"/>
</svg>
