<svg width="145" height="86" viewBox="0 0 145 86" fill="none" xmlns="http://www.w3.org/2000/svg">
<path d="M22.624 25.8335H41.3574V44.961C37.2683 49.0495 29.8117 51.4248 24.0755 51.4248C8.97107 51.4248 0 41.993 0 27.6131C0 14.356 8.90596 3.80078 23.0205 3.80078C29.6162 3.80078 34.1009 5.51678 37.8611 8.487L34.432 14.9486C32.1226 12.7733 28.0312 11.3886 24.0089 11.3886C15.1052 11.3886 8.57484 17.3241 8.57484 27.6131C8.57484 37.4416 14.8407 43.8378 24.2067 43.8378C27.7704 43.8378 32.0561 42.3227 33.7704 40.6749V33.4176H22.624V25.8335Z" fill="white"/>
<path d="M64.2227 4.52832H90.9358V12.1125H72.3366V23.5893H88.9569V31.1763H72.3366V43.1111H91.5952V50.6989H64.2227V4.52832Z" fill="white"/>
<path d="M115.519 16.5322C115.519 9.60602 120.927 3.80176 129.897 3.80176C135.569 3.80176 140.318 5.71617 143.089 8.74884L138.735 14.8177C136.494 12.6416 134.25 11.3888 130.556 11.3888C126.534 11.3888 124.093 13.4342 124.093 16.4669C124.093 26.03 145 22.9975 145 38.3648C145 46.1482 138.208 51.425 129.568 51.425C123.632 51.425 116.705 48.8532 114.462 44.1693L119.082 38.6294C121.784 42.1242 126.139 43.838 129.699 43.838C133.526 43.838 136.428 41.9273 136.428 38.4302C136.428 29.3278 115.519 31.5699 115.519 16.5322Z" fill="white"/>
<path d="M50.6357 55.224H53.6887V0H50.6357V55.224Z" fill="white"/>
<path d="M101.134 55.224H104.191V0H101.134V55.224Z" fill="white"/>
<path d="M22.624 25.8335H41.3574V44.961C37.2683 49.0495 29.8117 51.4248 24.0755 51.4248C8.97107 51.4248 0 41.993 0 27.6131C0 14.356 8.90596 3.80078 23.0205 3.80078C29.6162 3.80078 34.1009 5.51678 37.8611 8.487L34.432 14.9486C32.1226 12.7733 28.0312 11.3886 24.0089 11.3886C15.1052 11.3886 8.57484 17.3241 8.57484 27.6131C8.57484 37.4416 14.8407 43.8378 24.2067 43.8378C27.7704 43.8378 32.0561 42.3227 33.7704 40.6749V33.4176H22.624V25.8335Z" fill="white"/>
<path d="M64.2227 4.52832H90.9358V12.1125H72.3366V23.5893H88.9569V31.1763H72.3366V43.1111H91.5952V50.6989H64.2227V4.52832Z" fill="white"/>
<path d="M115.519 16.5322C115.519 9.60602 120.927 3.80176 129.897 3.80176C135.569 3.80176 140.318 5.71617 143.089 8.74884L138.735 14.8177C136.494 12.6416 134.25 11.3888 130.556 11.3888C126.534 11.3888 124.093 13.4342 124.093 16.4669C124.093 26.03 145 22.9975 145 38.3648C145 46.1482 138.208 51.425 129.568 51.425C123.632 51.425 116.705 48.8532 114.462 44.1693L119.082 38.6294C121.784 42.1242 126.139 43.838 129.699 43.838C133.526 43.838 136.428 41.9273 136.428 38.4302C136.428 29.3278 115.519 31.5699 115.519 16.5322Z" fill="white"/>
<path d="M50.6357 55.224H53.6887V0H50.6357V55.224Z" fill="white"/>
<path d="M101.134 55.224H104.191V0H101.134V55.224Z" fill="white"/>
<path fill-rule="evenodd" clip-rule="evenodd" d="M28.0134 80.2065C29.9416 80.2065 31.7402 79.4927 32.7444 78.1456L31.3156 75.9251C30.5503 76.7722 29.546 77.3803 28.2517 77.3803C26.4554 77.3803 24.8148 76.0816 24.8148 73.9686C24.8148 71.8833 26.4264 70.5876 28.1207 70.5876C29.2026 70.5876 30.1793 70.8759 31.0794 71.7483L32.5062 69.344C31.3968 68.234 29.6793 67.7303 27.722 67.7303C24.1018 67.7303 21.5654 70.5064 21.5654 73.9686C21.5654 77.7202 24.1532 80.2065 28.0134 80.2065ZM79.0785 75.5533C79.3049 75.0557 79.4229 74.4817 79.4229 73.8641C79.4229 71.962 78.3141 70.5881 76.3062 70.5881C75.2737 70.5881 74.3214 71.0619 73.583 71.8828C73.5829 71.8829 73.5829 71.8829 73.5829 71.883V76.6895C74.4047 77.2193 75.0902 77.3801 76.0932 77.3801C77.5484 77.3801 78.5782 76.6532 79.0785 75.5533ZM114.26 85.2023C115.947 85.1612 117.046 84.0857 118.755 79.9146L123.434 68.021H119.97L117.833 74.4963C117.621 75.1005 117.513 75.6774 117.41 76.2309L117.407 76.2435C117.373 76.1342 117.339 76.0259 117.306 75.9184C117.16 75.4508 117.019 74.9966 116.825 74.5246L114.052 68.021H110.406L115.902 79.9146L115.638 80.5493C115.135 81.7914 114.581 82.4001 113.812 82.4001C113.338 82.4001 112.887 82.1616 112.57 81.9761L111.593 84.2746C112.257 84.7614 113.02 85.1751 114.049 85.2023H114.26ZM100.572 68.0208H97.5309V79.9144H100.572V71.8013C101.285 71.0875 102.132 70.6658 103.161 70.6658C104.853 70.6658 105.831 71.562 105.831 73.4649V79.9144H108.868V72.9397C108.868 69.2107 106.887 67.8114 103.979 67.8114C102.553 67.8114 101.285 68.4462 100.572 69.2107V68.0208ZM91.5561 75.2121V76.428C91.186 76.9557 90.5258 77.5107 89.2576 77.5107C88.3047 77.5107 87.5677 77.0078 87.5677 76.1086C87.5677 75.1049 88.4655 74.6294 89.4692 74.6294C90.3418 74.6294 91.0295 74.8128 91.5561 75.2121ZM89.6526 67.7295C88.096 67.7295 86.4829 68.2584 85.4512 68.8679L86.22 71.0881C86.2541 71.0726 86.2883 71.057 86.3224 71.0413C87.158 70.6592 88.0153 70.2671 89.3359 70.2671C91.1077 70.2671 91.6352 71.3527 91.5561 73.3339C90.9742 72.9122 89.917 72.5671 88.8612 72.5671C86.4568 72.5671 84.5278 73.8092 84.5278 76.428C84.5278 78.7273 86.0881 80.0744 88.2534 80.0744C89.8648 80.0744 91.1344 79.4403 91.7685 78.5404V79.915H94.4113V72.6745C94.4113 69.5287 93.1686 67.7295 89.6526 67.7295ZM73.583 85.2023H70.5454V68.0212H73.583V69.1596C74.3214 68.3667 75.7252 67.7297 77.2555 67.7297C80.5353 67.7297 82.6469 70.2675 82.6469 73.7827C82.6469 77.4037 80.1658 80.2059 76.3591 80.2059C75.3027 80.2059 74.2701 80.0189 73.583 79.6233V85.2023ZM64.4104 79.9146H67.448V72.145C67.448 68.8935 65.8103 67.8117 63.6451 67.8117C61.7937 67.8117 60.4727 68.6029 59.6256 69.7146C59.2039 68.629 57.9879 67.8117 56.1655 67.8117C54.6849 67.8117 53.2842 68.3927 52.4371 69.3442V68.021H49.3995V79.9146H52.4371V71.934C52.9668 71.1413 53.838 70.666 54.9227 70.666C56.2168 70.666 56.9054 71.4848 56.9054 72.7275V79.9146H59.943V72.913C59.943 72.7682 59.9354 72.5756 59.9286 72.4008C59.9229 72.2554 59.9177 72.1224 59.9177 72.0392C60.3429 71.2188 61.2379 70.666 62.3756 70.666C63.8016 70.666 64.4104 71.4579 64.4104 72.9399V79.9146ZM43.5295 73.969C43.5295 76.0291 42.1549 77.3798 40.2781 77.3798C38.4273 77.3798 37.0542 75.95 37.0542 73.969C37.0542 71.9065 38.4803 70.5884 40.2781 70.5884C42.128 70.5884 43.5295 71.9609 43.5295 73.969ZM46.7534 73.969C46.7534 70.4008 44.2158 67.7297 40.2781 67.7297C36.3412 67.7297 33.8048 70.4008 33.8048 73.969C33.8048 77.537 36.3412 80.2059 40.2781 80.2059C44.2158 80.2059 46.7534 77.537 46.7534 73.969Z" fill="white"/>
</svg>
