<svg width="150" height="110" viewBox="0 0 150 110" fill="none" xmlns="http://www.w3.org/2000/svg">
<rect width="150" height="110" fill="black"/>
<path d="M50.234 47.8276H59.5361V57.3254C57.5056 59.3555 53.8031 60.535 50.9547 60.535C43.4546 60.535 39 55.8516 39 48.7113C39 42.1284 43.4223 36.8872 50.4309 36.8872C53.706 36.8872 55.9329 37.7393 57.8 39.2142L56.0973 42.4227C54.9505 41.3425 52.919 40.655 50.9217 40.655C46.5005 40.655 43.2578 43.6023 43.2578 48.7113C43.2578 53.5916 46.3692 56.7677 51.0199 56.7677C52.7894 56.7677 54.9175 56.0153 55.7687 55.1971V51.5935H50.234V47.8276Z" fill="white"/>
<path d="M70.8896 37.249H84.1541V41.0149H74.9186V46.7138H83.1715V50.4811H74.9186V56.4073H84.4815V60.1751H70.8896V37.249Z" fill="white"/>
<path d="M96.3606 43.209C96.3606 39.7698 99.0463 36.8877 103.5 36.8877C106.316 36.8877 108.675 37.8383 110.051 39.3442L107.889 42.3577C106.776 41.2771 105.662 40.655 103.828 40.655C101.831 40.655 100.618 41.6707 100.618 43.1766C100.618 47.9251 111 46.4194 111 54.05C111 57.9149 107.627 60.5351 103.337 60.5351C100.389 60.5351 96.9499 59.2581 95.8359 56.9323L98.1298 54.1814C99.4719 55.9168 101.634 56.7677 103.402 56.7677C105.302 56.7677 106.743 55.819 106.743 54.0825C106.743 49.5627 96.3606 50.676 96.3606 43.209Z" fill="white"/>
<path d="M64.1436 62.4216H65.6595V35H64.1436V62.4216Z" fill="white"/>
<path d="M89.2178 62.4216H90.7359V35H89.2178V62.4216Z" fill="white"/>
<path d="M50.234 47.8276H59.5361V57.3254C57.5056 59.3555 53.8031 60.535 50.9547 60.535C43.4546 60.535 39 55.8516 39 48.7113C39 42.1284 43.4223 36.8872 50.4309 36.8872C53.706 36.8872 55.9329 37.7393 57.8 39.2142L56.0973 42.4227C54.9505 41.3425 52.919 40.655 50.9217 40.655C46.5005 40.655 43.2578 43.6023 43.2578 48.7113C43.2578 53.5916 46.3692 56.7677 51.0199 56.7677C52.7894 56.7677 54.9175 56.0153 55.7687 55.1971V51.5935H50.234V47.8276Z" fill="white"/>
<path d="M70.8896 37.249H84.1541V41.0149H74.9186V46.7138H83.1715V50.4811H74.9186V56.4073H84.4815V60.1751H70.8896V37.249Z" fill="white"/>
<path d="M96.3606 43.209C96.3606 39.7698 99.0463 36.8877 103.5 36.8877C106.316 36.8877 108.675 37.8383 110.051 39.3442L107.889 42.3577C106.776 41.2771 105.662 40.655 103.828 40.655C101.831 40.655 100.618 41.6707 100.618 43.1766C100.618 47.9251 111 46.4194 111 54.05C111 57.9149 107.627 60.5351 103.337 60.5351C100.389 60.5351 96.9499 59.2581 95.8359 56.9323L98.1298 54.1814C99.4719 55.9168 101.634 56.7677 103.402 56.7677C105.302 56.7677 106.743 55.819 106.743 54.0825C106.743 49.5627 96.3606 50.676 96.3606 43.209Z" fill="white"/>
<path d="M64.1436 62.4216H65.6595V35H64.1436V62.4216Z" fill="white"/>
<path d="M89.2178 62.4216H90.7359V35H89.2178V62.4216Z" fill="white"/>
<path fill-rule="evenodd" clip-rule="evenodd" d="M52.9098 74.8263C53.8672 74.8263 54.7603 74.4719 55.259 73.803L54.5495 72.7004C54.1694 73.121 53.6708 73.423 53.0281 73.423C52.1361 73.423 51.3215 72.7781 51.3215 71.7289C51.3215 70.6934 52.1218 70.05 52.963 70.05C53.5002 70.05 53.9852 70.1932 54.4322 70.6264L55.1406 69.4325C54.5898 68.8814 53.737 68.6313 52.765 68.6313C50.9675 68.6313 49.708 70.0097 49.708 71.7289C49.708 73.5918 50.993 74.8263 52.9098 74.8263ZM76.1588 70.2187C75.9305 70.3285 75.7205 70.4893 75.5371 70.6933V73.08C75.9452 73.343 76.2855 73.4229 76.7836 73.4229C77.0512 73.4229 77.2898 73.3734 77.4968 73.2833C78.1018 73.0202 78.437 72.4105 78.437 71.677C78.437 70.7325 77.8864 70.0503 76.8894 70.0503C76.6801 70.0503 76.4775 70.0894 76.2861 70.1635C76.2431 70.1802 76.2006 70.1986 76.1588 70.2187ZM95.7356 77.307C96.5732 77.2866 97.1188 76.7525 97.9678 74.6814L100.291 68.7756H98.5712L97.5097 71.9909C97.4047 72.2909 97.3511 72.5774 97.2996 72.8522L97.2985 72.8585C97.2813 72.8042 97.2646 72.7504 97.248 72.697C97.1758 72.4648 97.1057 72.2393 97.0092 72.005L95.6325 68.7756H93.8219L96.5511 74.6814L96.4198 74.9966C96.1701 75.6133 95.8952 75.9156 95.5134 75.9156C95.278 75.9156 95.0539 75.7971 94.8962 75.705L94.4113 76.8464C94.7409 77.0881 95.12 77.2935 95.6307 77.307H95.7356ZM88.9389 68.7755H87.4288V74.6813H88.9389V70.6527C89.2927 70.2983 89.7133 70.0889 90.2246 70.0889C91.0643 70.0889 91.5501 70.5339 91.5501 71.4788V74.6813H93.0585V71.218C93.0585 69.3664 92.0744 68.6715 90.6307 68.6715C89.9227 68.6715 89.2927 68.9867 88.9389 69.3663V68.7755ZM84.462 72.3464V72.9501C84.2782 73.2121 83.9504 73.4877 83.3207 73.4877C82.8475 73.4877 82.4815 73.238 82.4815 72.7915C82.4815 72.2931 82.9274 72.057 83.4257 72.057C83.859 72.057 84.2005 72.1481 84.462 72.3464ZM83.5168 68.6309C82.7439 68.6309 81.9429 68.8935 81.4306 69.1961L81.8123 70.2986C81.8293 70.2909 81.8462 70.2831 81.8632 70.2754C82.2781 70.0856 82.7038 69.8909 83.3595 69.8909C84.2393 69.8909 84.5013 70.43 84.462 71.4137C84.173 71.2043 83.6481 71.033 83.1238 71.033C81.9299 71.033 80.9721 71.6497 80.9721 72.9501C80.9721 74.0919 81.7469 74.7607 82.822 74.7607C83.6222 74.7607 84.2526 74.4459 84.5675 73.999V74.6816H85.8798V71.0863C85.8798 69.5242 85.2627 68.6309 83.5168 68.6309ZM75.5374 77.307H74.0291V68.7757H75.5374V69.341C75.9041 68.9473 76.6011 68.631 77.361 68.631C78.9896 68.631 80.0381 69.8911 80.0381 71.6366C80.0381 73.4346 78.8061 74.826 76.9159 74.826C76.3913 74.826 75.8786 74.7332 75.5374 74.5368V77.307ZM70.9827 74.6814H72.4911V70.8234C72.4911 69.2089 71.6779 68.6717 70.6027 68.6717C69.6834 68.6717 69.0275 69.0645 68.6068 69.6166C68.3974 69.0775 67.7936 68.6717 66.8887 68.6717C66.1535 68.6717 65.458 68.9602 65.0374 69.4326V68.7756H63.529V74.6814H65.0374V70.7186C65.3004 70.325 65.733 70.089 66.2716 70.089C66.9142 70.089 67.2561 70.4956 67.2561 71.1126V74.6814H68.7644V71.2047C68.7644 71.1328 68.7607 71.0372 68.7573 70.9504C68.7545 70.8782 68.7519 70.8121 68.7519 70.7708C68.963 70.3635 69.4074 70.089 69.9724 70.089C70.6804 70.089 70.9827 70.4822 70.9827 71.2181V74.6814ZM60.6143 71.7291C60.6143 72.752 59.9317 73.4228 58.9998 73.4228C58.0808 73.4228 57.399 72.7128 57.399 71.7291C57.399 70.705 58.1071 70.0504 58.9998 70.0504C59.9184 70.0504 60.6143 70.732 60.6143 71.7291ZM62.2151 71.7291C62.2151 69.9573 60.9551 68.631 58.9998 68.631C57.0449 68.631 55.7855 69.9573 55.7855 71.7291C55.7855 73.5008 57.0449 74.826 58.9998 74.826C60.9551 74.826 62.2151 73.5008 62.2151 71.7291Z" fill="white"/>
</svg>
